{
	"asset":{
		"generator":"Khronos glTF Blender I/O v4.4.56",
		"version":"2.0"
	},
	"extensionsUsed":[
		"KHR_materials_unlit"
	],
	"scene":0,
	"scenes":[
		{
			"name":"Scene",
			"nodes":[
				4
			]
		}
	],
	"nodes":[
		{
			"mesh":0,
			"name":"Object_4",
			"scale":[
				0.4143593907356262,
				0.4143593907356262,
				0.4143593907356262
			],
			"translation":[
				0.1256745159626007,
				11.67039966583252,
				-0.6086138486862183
			]
		},
		{
			"children":[
				0
			],
			"name":"Cube.005_0",
			"scale":[
				0.18395982682704926,
				0.18395982682704926,
				0.18395982682704926
			],
			"translation":[
				0,
				-1.106323003768921,
				0
			]
		},
		{
			"children":[
				1
			],
			"name":"GLTF_SceneRootNode",
			"rotation":[
				0.70710688829422,
				0,
				0,
				0.7071066498756409
			]
		},
		{
			"children":[
				2
			],
			"name":"root"
		},
		{
			"children":[
				3
			],
			"name":"Sketchfab_model",
			"rotation":[
				-0.5,
				-0.5,
				-0.5,
				0.5
			],
			"translation":[
				-0.08019164949655533,
				0,
				0.010114281438291073
			]
		}
	],
	"materials":[
		{
			"doubleSided":true,
			"extensions":{
				"KHR_materials_unlit":{}
			},
			"name":"Material.002",
			"pbrMetallicRoughness":{
				"baseColorTexture":{
					"index":0
				},
				"metallicFactor":0,
				"roughnessFactor":0.9
			}
		}
	],
	"meshes":[
		{
			"name":"Object_0",
			"primitives":[
				{
					"attributes":{
						"POSITION":0,
						"NORMAL":1,
						"TEXCOORD_0":2
					},
					"indices":3,
					"material":0
				}
			]
		}
	],
	"textures":[
		{
			"sampler":0,
			"source":0
		}
	],
	"images":[
		{
			"mimeType":"image/png",
			"name":"2",
			"uri":"2.png"
		}
	],
	"accessors":[
		{
			"bufferView":0,
			"componentType":5126,
			"count":711,
			"max":[
				2.964690685272217,
				12.541805267333984,
				5.37320613861084
			],
			"min":[
				-4.062187671661377,
				-13.579307556152344,
				-4.969022274017334
			],
			"type":"VEC3"
		},
		{
			"bufferView":1,
			"componentType":5126,
			"count":711,
			"type":"VEC3"
		},
		{
			"bufferView":2,
			"componentType":5126,
			"count":711,
			"type":"VEC2"
		},
		{
			"bufferView":3,
			"componentType":5123,
			"count":1065,
			"type":"SCALAR"
		}
	],
	"bufferViews":[
		{
			"buffer":0,
			"byteLength":8532,
			"byteOffset":0,
			"target":34962
		},
		{
			"buffer":0,
			"byteLength":8532,
			"byteOffset":8532,
			"target":34962
		},
		{
			"buffer":0,
			"byteLength":5688,
			"byteOffset":17064,
			"target":34962
		},
		{
			"buffer":0,
			"byteLength":2130,
			"byteOffset":22752,
			"target":34963
		}
	],
	"samplers":[
		{
			"magFilter":9728,
			"minFilter":9984
		}
	],
	"buffers":[
		{
			"byteLength":24884,
			"uri":"2.bin"
		}
	]
}
