{
	"asset":{
		"generator":"Khronos glTF Blender I/O v4.4.56",
		"version":"2.0"
	},
	"extensionsUsed":[
		"KHR_materials_specular"
	],
	"scene":0,
	"scenes":[
		{
			"name":"Scene",
			"nodes":[
				4
			]
		}
	],
	"nodes":[
		{
			"mesh":0,
			"name":"Object_2",
			"translation":[
				3.814697265625e-06,
				0,
				0
			]
		},
		{
			"mesh":1,
			"name":"Object_3",
			"translation":[
				3.814697265625e-06,
				0,
				0
			]
		},
		{
			"mesh":2,
			"name":"Object_4",
			"translation":[
				3.814697265625e-06,
				0,
				0
			]
		},
		{
			"children":[
				0,
				1,
				2
			],
			"name":"Relaxing Stylized Animated Forest__Meadow .obj.cleaner.material",
			"translation":[
				3.814697265625e-06,
				0,
				0
			]
		},
		{
			"children":[
				3
			],
			"name":"Sketchfab_model",
			"rotation":[
				-0.70710688829422,
				0,
				0,
				0.7071066498756409
			],
			"scale":[
				0.6370877623558044,
				0.6370878219604492,
				0.6370878219604492
			],
			"translation":[
				-24.995880126953125,
				-1.8603615760803223,
				-1.7408808469772339
			]
		}
	],
	"materials":[
		{
			"doubleSided":true,
			"extensions":{
				"KHR_materials_specular":{
					"specularFactor":0
				}
			},
			"name":"Material.001",
			"pbrMetallicRoughness":{
				"baseColorTexture":{
					"index":0
				},
				"metallicFactor":0,
				"roughnessFactor":0.6000000238418579
			}
		}
	],
	"meshes":[
		{
			"name":"Object_0",
			"primitives":[
				{
					"attributes":{
						"POSITION":0,
						"NORMAL":1,
						"TEXCOORD_0":2
					},
					"indices":3,
					"material":0
				}
			]
		},
		{
			"name":"Object_1",
			"primitives":[
				{
					"attributes":{
						"POSITION":4,
						"NORMAL":5,
						"TEXCOORD_0":6
					},
					"indices":7,
					"material":0
				}
			]
		},
		{
			"name":"Object_2",
			"primitives":[
				{
					"attributes":{
						"POSITION":8,
						"NORMAL":9,
						"TEXCOORD_0":10
					},
					"indices":11,
					"material":0
				}
			]
		}
	],
	"textures":[
		{
			"sampler":0,
			"source":0
		}
	],
	"images":[
		{
			"mimeType":"image/jpeg",
			"name":"Image",
			"uri":"Image.jpg"
		}
	],
	"accessors":[
		{
			"bufferView":0,
			"componentType":5126,
			"count":20275,
			"max":[
				92.5270004272461,
				71.69310760498047,
				30.042499542236328
			],
			"min":[
				-43.807289123535156,
				-87.58751678466797,
				0.01116899959743023
			],
			"type":"VEC3"
		},
		{
			"bufferView":1,
			"componentType":5126,
			"count":20275,
			"type":"VEC3"
		},
		{
			"bufferView":2,
			"componentType":5126,
			"count":20275,
			"type":"VEC2"
		},
		{
			"bufferView":3,
			"componentType":5123,
			"count":56301,
			"type":"SCALAR"
		},
		{
			"bufferView":4,
			"componentType":5126,
			"count":16530,
			"max":[
				91.62387084960938,
				65.8757095336914,
				30.271120071411133
			],
			"min":[
				-44.839420318603516,
				-84.17426300048828,
				0.011176999658346176
			],
			"type":"VEC3"
		},
		{
			"bufferView":5,
			"componentType":5126,
			"count":16530,
			"type":"VEC3"
		},
		{
			"bufferView":6,
			"componentType":5126,
			"count":16530,
			"type":"VEC2"
		},
		{
			"bufferView":7,
			"componentType":5123,
			"count":44970,
			"type":"SCALAR"
		},
		{
			"bufferView":8,
			"componentType":5126,
			"count":15785,
			"max":[
				88.18827056884766,
				70.52118682861328,
				25.34016990661621
			],
			"min":[
				-42.345149993896484,
				-82.52057647705078,
				-0.011653999797999859
			],
			"type":"VEC3"
		},
		{
			"bufferView":9,
			"componentType":5126,
			"count":15785,
			"type":"VEC3"
		},
		{
			"bufferView":10,
			"componentType":5126,
			"count":15785,
			"type":"VEC2"
		},
		{
			"bufferView":11,
			"componentType":5123,
			"count":37347,
			"type":"SCALAR"
		}
	],
	"bufferViews":[
		{
			"buffer":0,
			"byteLength":243300,
			"byteOffset":0,
			"target":34962
		},
		{
			"buffer":0,
			"byteLength":243300,
			"byteOffset":243300,
			"target":34962
		},
		{
			"buffer":0,
			"byteLength":162200,
			"byteOffset":486600,
			"target":34962
		},
		{
			"buffer":0,
			"byteLength":112602,
			"byteOffset":648800,
			"target":34963
		},
		{
			"buffer":0,
			"byteLength":198360,
			"byteOffset":761404,
			"target":34962
		},
		{
			"buffer":0,
			"byteLength":198360,
			"byteOffset":959764,
			"target":34962
		},
		{
			"buffer":0,
			"byteLength":132240,
			"byteOffset":1158124,
			"target":34962
		},
		{
			"buffer":0,
			"byteLength":89940,
			"byteOffset":1290364,
			"target":34963
		},
		{
			"buffer":0,
			"byteLength":189420,
			"byteOffset":1380304,
			"target":34962
		},
		{
			"buffer":0,
			"byteLength":189420,
			"byteOffset":1569724,
			"target":34962
		},
		{
			"buffer":0,
			"byteLength":126280,
			"byteOffset":1759144,
			"target":34962
		},
		{
			"buffer":0,
			"byteLength":74694,
			"byteOffset":1885424,
			"target":34963
		}
	],
	"samplers":[
		{
			"magFilter":9729,
			"minFilter":9987
		}
	],
	"buffers":[
		{
			"byteLength":1960120,
			"uri":"scene.bin"
		}
	]
}
