{
	"asset":{
		"generator":"Khronos glTF Blender I/O v4.4.56",
		"version":"2.0"
	},
	"extensionsUsed":[
		"KHR_materials_unlit"
	],
	"scene":0,
	"scenes":[
		{
			"name":"Scene",
			"nodes":[
				2
			]
		}
	],
	"nodes":[
		{
			"mesh":0,
			"name":"Object_2",
			"rotation":[
				0,
				0,
				-0.44721364974975586,
				0.8944272994995117
			],
			"scale":[
				0.5563663840293884,
				0.5563664436340332,
				0.5563663840293884
			],
			"translation":[
				-0.00029160879785194993,
				6.240679795155302e-05,
				0.9777368903160095
			]
		},
		{
			"children":[
				0
			],
			"name":"mulder.obj.cleaner.materialmerger.gles"
		},
		{
			"children":[
				1
			],
			"name":"Sketchfab_model",
			"rotation":[
				-0.6650329232215881,
				-0.24027301371097565,
				-0.24027301371097565,
				0.6650330424308777
			],
			"translation":[
				-0.0025165588594973087,
				0,
				0.006965684238821268
			]
		}
	],
	"materials":[
		{
			"doubleSided":true,
			"extensions":{
				"KHR_materials_unlit":{}
			},
			"name":"Material.001",
			"pbrMetallicRoughness":{
				"baseColorTexture":{
					"index":0
				},
				"metallicFactor":0,
				"roughnessFactor":0.9
			}
		},
		{
			"doubleSided":true,
			"extensions":{
				"KHR_materials_unlit":{}
			},
			"name":"Material.002",
			"pbrMetallicRoughness":{
				"baseColorTexture":{
					"index":1
				},
				"metallicFactor":0,
				"roughnessFactor":0.9
			}
		}
	],
	"meshes":[
		{
			"name":"Object_0",
			"primitives":[
				{
					"attributes":{
						"POSITION":0,
						"NORMAL":1,
						"TEXCOORD_0":2
					},
					"indices":3,
					"material":0
				},
				{
					"attributes":{
						"POSITION":4,
						"NORMAL":5,
						"TEXCOORD_0":6
					},
					"indices":7,
					"material":1
				}
			]
		}
	],
	"textures":[
		{
			"sampler":0,
			"source":0
		},
		{
			"sampler":0,
			"source":0
		}
	],
	"images":[
		{
			"mimeType":"image/png",
			"name":"elf2",
			"uri":"elf2.png"
		}
	],
	"accessors":[
		{
			"bufferView":0,
			"componentType":5126,
			"count":1368,
			"max":[
				0.24983365833759308,
				0.5541014671325684,
				1.5572084188461304
			],
			"min":[
				-0.37607139348983765,
				-0.5542265176773071,
				-1.7464966773986816
			],
			"type":"VEC3"
		},
		{
			"bufferView":1,
			"componentType":5126,
			"count":1368,
			"type":"VEC3"
		},
		{
			"bufferView":2,
			"componentType":5126,
			"count":1368,
			"type":"VEC2"
		},
		{
			"bufferView":3,
			"componentType":5123,
			"count":1866,
			"type":"SCALAR"
		},
		{
			"bufferView":4,
			"componentType":5126,
			"count":7,
			"max":[
				0.1425420641899109,
				0.23591884970664978,
				1.3602885007858276
			],
			"min":[
				-0.14580167829990387,
				-0.20910023152828217,
				1.2026013135910034
			],
			"type":"VEC3"
		},
		{
			"bufferView":5,
			"componentType":5126,
			"count":7,
			"type":"VEC3"
		},
		{
			"bufferView":6,
			"componentType":5126,
			"count":7,
			"type":"VEC2"
		},
		{
			"bufferView":7,
			"componentType":5123,
			"count":9,
			"type":"SCALAR"
		}
	],
	"bufferViews":[
		{
			"buffer":0,
			"byteLength":16416,
			"byteOffset":0,
			"target":34962
		},
		{
			"buffer":0,
			"byteLength":16416,
			"byteOffset":16416,
			"target":34962
		},
		{
			"buffer":0,
			"byteLength":10944,
			"byteOffset":32832,
			"target":34962
		},
		{
			"buffer":0,
			"byteLength":3732,
			"byteOffset":43776,
			"target":34963
		},
		{
			"buffer":0,
			"byteLength":84,
			"byteOffset":47508,
			"target":34962
		},
		{
			"buffer":0,
			"byteLength":84,
			"byteOffset":47592,
			"target":34962
		},
		{
			"buffer":0,
			"byteLength":56,
			"byteOffset":47676,
			"target":34962
		},
		{
			"buffer":0,
			"byteLength":18,
			"byteOffset":47732,
			"target":34963
		}
	],
	"samplers":[
		{
			"magFilter":9728,
			"minFilter":9984
		}
	],
	"buffers":[
		{
			"byteLength":47752,
			"uri":"1.bin"
		}
	]
}
