{
	"asset":{
		"generator":"Khronos glTF Blender I/O v4.4.56",
		"version":"2.0"
	},
	"extensionsUsed":[
		"KHR_materials_unlit"
	],
	"scene":0,
	"scenes":[
		{
			"name":"Scene",
			"nodes":[
				0
			]
		}
	],
	"nodes":[
		{
			"mesh":0,
			"name":"Object_9",
			"rotation":[
				-0.7071068286895752,
				0,
				0,
				0.7071068286895752
			],
			"scale":[
				0.33026671409606934,
				0.33026671409606934,
				0.33026671409606934
			]
		}
	],
	"materials":[
		{
			"doubleSided":true,
			"extensions":{
				"KHR_materials_unlit":{}
			},
			"name":"Material.004",
			"pbrMetallicRoughness":{
				"baseColorTexture":{
					"index":0
				},
				"metallicFactor":0,
				"roughnessFactor":0.9
			}
		}
	],
	"meshes":[
		{
			"name":"chart_Material_0.001",
			"primitives":[
				{
					"attributes":{
						"POSITION":0,
						"NORMAL":1,
						"TEXCOORD_0":2
					},
					"indices":3,
					"material":0
				}
			]
		}
	],
	"textures":[
		{
			"sampler":0,
			"source":0
		}
	],
	"images":[
		{
			"mimeType":"image/png",
			"name":"Material_baseColor",
			"uri":"textures/Material_baseColor.png"
		}
	],
	"accessors":[
		{
			"bufferView":0,
			"componentType":5126,
			"count":1151,
			"max":[
				2.5574564933776855,
				1.0411322116851807,
				5.716747760772705
			],
			"min":[
				-2.55702543258667,
				-0.2914712429046631,
				0.010014057159423828
			],
			"type":"VEC3"
		},
		{
			"bufferView":1,
			"componentType":5126,
			"count":1151,
			"type":"VEC3"
		},
		{
			"bufferView":2,
			"componentType":5126,
			"count":1151,
			"type":"VEC2"
		},
		{
			"bufferView":3,
			"componentType":5123,
			"count":4230,
			"type":"SCALAR"
		}
	],
	"bufferViews":[
		{
			"buffer":0,
			"byteLength":13812,
			"byteOffset":0,
			"target":34962
		},
		{
			"buffer":0,
			"byteLength":13812,
			"byteOffset":13812,
			"target":34962
		},
		{
			"buffer":0,
			"byteLength":9208,
			"byteOffset":27624,
			"target":34962
		},
		{
			"buffer":0,
			"byteLength":8460,
			"byteOffset":36832,
			"target":34963
		}
	],
	"samplers":[
		{
			"magFilter":9729,
			"minFilter":9987
		}
	],
	"buffers":[
		{
			"byteLength":45292,
			"uri":"scene.bin"
		}
	]
}
