{
	"asset":{
		"generator":"Khronos glTF Blender I/O v4.4.56",
		"version":"2.0"
	},
	"scene":0,
	"scenes":[
		{
			"name":"Scene",
			"nodes":[
				0
			]
		}
	],
	"nodes":[
		{
			"mesh":0,
			"name":"Cube.001",
			"scale":[
				0.5954203009605408,
				0.5954203009605408,
				0.5954203009605408
			],
			"translation":[
				0,
				1.1667087078094482,
				0
			]
		}
	],
	"materials":[
		{
			"doubleSided":true,
			"name":"Material.003",
			"pbrMetallicRoughness":{
				"baseColorTexture":{
					"index":0
				},
				"metallicFactor":0,
				"roughnessFactor":0.5
			}
		}
	],
	"meshes":[
		{
			"name":"Cube",
			"primitives":[
				{
					"attributes":{
						"POSITION":0,
						"NORMAL":1,
						"TEXCOORD_0":2
					},
					"indices":3,
					"material":0
				}
			]
		}
	],
	"textures":[
		{
			"sampler":0,
			"source":0
		}
	],
	"images":[
		{
			"mimeType":"image/png",
			"name":"dwarf2",
			"uri":"dwarf2.png"
		}
	],
	"accessors":[
		{
			"bufferView":0,
			"componentType":5126,
			"count":2724,
			"max":[
				0.9626833200454712,
				0.6083207726478577,
				0.4635416269302368
			],
			"min":[
				-0.9626833200454712,
				-1.9517314434051514,
				-0.27509617805480957
			],
			"type":"VEC3"
		},
		{
			"bufferView":1,
			"componentType":5126,
			"count":2724,
			"type":"VEC3"
		},
		{
			"bufferView":2,
			"componentType":5126,
			"count":2724,
			"type":"VEC2"
		},
		{
			"bufferView":3,
			"componentType":5123,
			"count":4068,
			"type":"SCALAR"
		}
	],
	"bufferViews":[
		{
			"buffer":0,
			"byteLength":32688,
			"byteOffset":0,
			"target":34962
		},
		{
			"buffer":0,
			"byteLength":32688,
			"byteOffset":32688,
			"target":34962
		},
		{
			"buffer":0,
			"byteLength":21792,
			"byteOffset":65376,
			"target":34962
		},
		{
			"buffer":0,
			"byteLength":8136,
			"byteOffset":87168,
			"target":34963
		}
	],
	"samplers":[
		{
			"magFilter":9729,
			"minFilter":9987
		}
	],
	"buffers":[
		{
			"byteLength":95304,
			"uri":"1.bin"
		}
	]
}
