{
	"asset":{
		"generator":"Khronos glTF Blender I/O v4.4.56",
		"version":"2.0"
	},
	"extensionsUsed":[
		"KHR_materials_unlit"
	],
	"scene":0,
	"scenes":[
		{
			"name":"Scene",
			"nodes":[
				39
			]
		}
	],
	"nodes":[
		{
			"name":"Object_6",
			"translation":[
				0,
				-1.1837759302579798e-05,
				0
			]
		},
		{
			"name":"head_end_026",
			"rotation":[
				7.450580596923828e-09,
				1.3656327624289588e-08,
				8.537694002838138e-16,
				1
			],
			"translation":[
				-7.318263020323484e-16,
				0.19949012994766235,
				1.4901161193847656e-08
			]
		},
		{
			"children":[
				1
			],
			"name":"head_05",
			"rotation":[
				-0.15708406269550323,
				-2.042769295940161e-07,
				7.436432269969373e-08,
				0.9875852465629578
			],
			"translation":[
				4.346390326641358e-15,
				0.06841814517974854,
				8.847564458847046e-08
			]
		},
		{
			"children":[
				2
			],
			"name":"neck_04",
			"rotation":[
				0.27884337306022644,
				1.0414688631499303e-06,
				-3.767293890177825e-07,
				0.9603366255760193
			],
			"translation":[
				2.8596364235996055e-14,
				0.3133416771888733,
				1.862645149230957e-08
			]
		},
		{
			"name":"thumb.02.L_end_027",
			"rotation":[
				4.656613983300417e-10,
				-9.31322685637781e-10,
				2.7939679458910405e-09,
				1
			],
			"scale":[
				1,
				0.9999999403953552,
				0.9999999403953552
			],
			"translation":[
				1.955777406692505e-08,
				0.05492693930864334,
				4.0978193283081055e-08
			]
		},
		{
			"children":[
				4
			],
			"name":"thumb.02.L_011",
			"rotation":[
				0.2403709888458252,
				-0.07432884722948074,
				-0.02699090726673603,
				0.9674546718597412
			],
			"scale":[
				0.9999999403953552,
				1.0000001192092896,
				1.0000001192092896
			],
			"translation":[
				1.7695128917694092e-08,
				0.04093343764543533,
				-4.470348358154297e-08
			]
		},
		{
			"children":[
				5
			],
			"name":"thumb.01.L_010",
			"rotation":[
				-0.2015082836151123,
				-0.906105637550354,
				-0.34664613008499146,
				0.13492025434970856
			],
			"scale":[
				1,
				0.9999999403953552,
				0.9999998807907104
			],
			"translation":[
				0.015732599422335625,
				0.04078194126486778,
				0.04017138481140137
			]
		},
		{
			"name":"f_middle.01.L_end_00",
			"rotation":[
				9.284121915698051e-09,
				-3.6437999284544276e-08,
				-1.932494342327118e-08,
				1
			],
			"scale":[
				0.9999999403953552,
				1,
				0.9999998807907104
			],
			"translation":[
				-1.0109033610206097e-08,
				0.10084255784749985,
				-1.1612428352236748e-08
			]
		},
		{
			"children":[
				7
			],
			"name":"f_middle.01.L_012",
			"rotation":[
				-0.18072162568569183,
				-0.9821286201477051,
				-0.015550535172224045,
				0.05021241307258606
			],
			"scale":[
				0.9999999403953552,
				1.0000001192092896,
				1
			],
			"translation":[
				8.195638656616211e-08,
				0.09144064038991928,
				-2.9802322387695312e-08
			]
		},
		{
			"children":[
				6,
				8
			],
			"name":"hand_left_09",
			"rotation":[
				-0.058245446532964706,
				-0.12290975451469421,
				0.003875995520502329,
				0.9906995892524719
			],
			"scale":[
				1,
				0.9999998807907104,
				0.9999998807907104
			],
			"translation":[
				-2.60770320892334e-08,
				0.30301523208618164,
				-1.30385160446167e-08
			]
		},
		{
			"children":[
				9
			],
			"name":"forearm_left_08",
			"rotation":[
				0.18051883578300476,
				0.09795432537794113,
				-0.01978042721748352,
				0.9784818291664124
			],
			"translation":[
				-3.259629011154175e-09,
				0.26703983545303345,
				-2.9802322387695312e-08
			]
		},
		{
			"children":[
				10
			],
			"name":"upper_arm_left_07",
			"rotation":[
				-0.39578232169151306,
				0.625566840171814,
				-0.39808565378189087,
				0.5418028235435486
			],
			"translation":[
				-0.00046886131167411804,
				0.19602707028388977,
				-0.016137445345520973
			]
		},
		{
			"children":[
				11
			],
			"name":"shoulder_left_06",
			"rotation":[
				-0.5482496023178101,
				-0.3858693242073059,
				-0.5043438673019409,
				0.5442100167274475
			],
			"scale":[
				1,
				0.9999999403953552,
				1
			],
			"translation":[
				0.03634584695100784,
				0.24780984222888947,
				0.011971433646976948
			]
		},
		{
			"name":"thumb.02.R_end_028",
			"rotation":[
				4.353932681055994e-08,
				-3.4458935260772705e-08,
				1.7695128917694092e-08,
				1
			],
			"scale":[
				1,
				1.0000001192092896,
				1
			],
			"translation":[
				2.421438694000244e-08,
				0.05492672696709633,
				-4.0978193283081055e-08
			]
		},
		{
			"children":[
				13
			],
			"name":"thumb.02.R_018",
			"rotation":[
				0.2403709441423416,
				0.07432901114225388,
				0.02699091099202633,
				0.9674546718597412
			],
			"scale":[
				1,
				1.0000001192092896,
				1
			],
			"translation":[
				-2.9802322387695312e-08,
				0.04093356803059578,
				-4.0978193283081055e-08
			]
		},
		{
			"children":[
				14
			],
			"name":"thumb.01.R_017",
			"rotation":[
				-0.2015082687139511,
				0.906105637550354,
				0.34664615988731384,
				0.13492035865783691
			],
			"scale":[
				1,
				0.9999997019767761,
				1
			],
			"translation":[
				-0.015732571482658386,
				0.04078197106719017,
				0.040171392261981964
			]
		},
		{
			"name":"f_middle.01.R_end_029",
			"rotation":[
				1.3882528904218816e-08,
				1.9441362297811793e-08,
				2.4505428797283457e-08,
				1
			],
			"scale":[
				0.9999999403953552,
				0.9999999403953552,
				0.9999998211860657
			],
			"translation":[
				-1.9473191059660167e-08,
				0.10084258019924164,
				-1.3620592653751373e-08
			]
		},
		{
			"children":[
				16
			],
			"name":"f_middle.01.R_019",
			"rotation":[
				-0.18072159588336945,
				0.9821286201477051,
				0.015550554729998112,
				0.05021240562200546
			],
			"scale":[
				1,
				0.9999998211860657,
				1
			],
			"translation":[
				-5.075708031654358e-08,
				0.09144067019224167,
				-3.166496753692627e-08
			]
		},
		{
			"children":[
				15,
				17
			],
			"name":"hand_right_016",
			"rotation":[
				-0.058245472609996796,
				0.1229097843170166,
				-0.003875994822010398,
				0.9906995892524719
			],
			"scale":[
				1,
				0.9999999403953552,
				0.9999998807907104
			],
			"translation":[
				-2.0721927285194397e-08,
				0.3030150830745697,
				3.725290298461914e-09
			]
		},
		{
			"children":[
				18
			],
			"name":"forearm_right_015",
			"rotation":[
				0.18051889538764954,
				-0.09795446693897247,
				0.019780440255999565,
				0.9784818291664124
			],
			"translation":[
				-9.313225746154785e-10,
				0.26703980565071106,
				3.725290298461914e-09
			]
		},
		{
			"children":[
				19
			],
			"name":"upper_arm_right_014",
			"rotation":[
				-0.3957824110984802,
				-0.6255667805671692,
				0.3980856239795685,
				0.5418028235435486
			],
			"scale":[
				1,
				1.0000001192092896,
				1.0000001192092896
			],
			"translation":[
				0.0004688575863838196,
				0.1960270255804062,
				-0.016137437894940376
			]
		},
		{
			"children":[
				20
			],
			"name":"shoulder_right_013",
			"rotation":[
				-0.5482484102249146,
				0.38587063550949097,
				0.504345178604126,
				0.5442090034484863
			],
			"scale":[
				0.9999998807907104,
				0.9999998807907104,
				1
			],
			"translation":[
				-0.03634578734636307,
				0.24780984222888947,
				0.011971610598266125
			]
		},
		{
			"children":[
				3,
				12,
				21
			],
			"name":"chest_03",
			"rotation":[
				-0.07435402274131775,
				-1.3389410469244467e-06,
				8.125918071755223e-08,
				0.9972319602966309
			],
			"translation":[
				-2.8689628492719384e-15,
				0.2204750031232834,
				6.05359673500061e-09
			]
		},
		{
			"children":[
				22
			],
			"name":"spine_02",
			"rotation":[
				-0.1013382077217102,
				9.369025377736762e-08,
				-1.576964336891251e-08,
				0.9948520660400391
			],
			"translation":[
				-3.6215417761493725e-16,
				0.14631004631519318,
				3.166496753692627e-08
			]
		},
		{
			"name":"foot_left_end_030",
			"rotation":[
				-1.487819734080631e-08,
				-7.8580342233181e-10,
				2.0372681319713593e-09,
				1
			],
			"scale":[
				1,
				0.9999999403953552,
				1
			],
			"translation":[
				1.7163984011858702e-08,
				0.20217788219451904,
				-1.743319444358349e-08
			]
		},
		{
			"children":[
				24
			],
			"name":"foot_left_022",
			"rotation":[
				-0.5706433057785034,
				-0.021708741784095764,
				0.024626823142170906,
				0.8205415606498718
			],
			"scale":[
				1,
				0.9999999403953552,
				1
			],
			"translation":[
				3.9872247725725174e-08,
				0.4244386553764343,
				5.238689482212067e-10
			]
		},
		{
			"children":[
				25
			],
			"name":"shin.L_021",
			"rotation":[
				-0.022358423098921776,
				0.007742888759821653,
				0.017427479848265648,
				0.9995681047439575
			],
			"scale":[
				1.0000001192092896,
				1.0000001192092896,
				1
			],
			"translation":[
				6.984919309616089e-09,
				0.5184570550918579,
				-3.259629011154175e-09
			]
		},
		{
			"children":[
				26
			],
			"name":"thigh_left_020",
			"rotation":[
				0.9949549436569214,
				0.050402555614709854,
				-0.012434483505785465,
				0.08584637939929962
			],
			"scale":[
				0.9999998807907104,
				1,
				0.9999998807907104
			],
			"translation":[
				0.09419551491737366,
				0.06101062521338463,
				-0.0024448761250823736
			]
		},
		{
			"name":"foot_right_end_031",
			"rotation":[
				1.4825220162606456e-08,
				-3.754394573007858e-09,
				9.31322685637781e-10,
				1
			],
			"scale":[
				0.9999999403953552,
				0.9999999403953552,
				0.9999999403953552
			],
			"translation":[
				-2.3137545213103294e-09,
				0.20217785239219666,
				-1.5104888007044792e-08
			]
		},
		{
			"children":[
				28
			],
			"name":"foot_right_025",
			"rotation":[
				-0.5706433057785034,
				0.021708743646740913,
				-0.024626830592751503,
				0.8205415606498718
			],
			"scale":[
				1.0000001192092896,
				0.9999999403953552,
				1
			],
			"translation":[
				-1.0419171303510666e-08,
				0.4244386851787567,
				-3.899913281202316e-09
			]
		},
		{
			"children":[
				29
			],
			"name":"shin.R_024",
			"rotation":[
				-0.022358421236276627,
				-0.0077428556978702545,
				-0.017427492886781693,
				0.9995681047439575
			],
			"translation":[
				6.344635039567947e-09,
				0.5184569358825684,
				-7.916241884231567e-09
			]
		},
		{
			"children":[
				30
			],
			"name":"thigh_right_023",
			"rotation":[
				0.9949549436569214,
				-0.050402577966451645,
				0.012434571981430054,
				0.08584636449813843
			],
			"translation":[
				-0.09419551491737366,
				0.06101062521338463,
				-0.0024448877666145563
			]
		},
		{
			"children":[
				23,
				27,
				31
			],
			"name":"pelvis_01",
			"rotation":[
				0.12581972777843475,
				-4.4422503009400316e-08,
				1.3364246598257523e-08,
				0.9920530915260315
			],
			"translation":[
				8.01139599104772e-09,
				0.9706945419311523,
				-0.05305707827210426
			]
		},
		{
			"children":[
				32
			],
			"name":"_rootJoint",
			"rotation":[
				0.7071067690849304,
				5.338507236274381e-08,
				5.338507236274381e-08,
				0.7071067690849304
			],
			"scale":[
				1,
				0.9999997615814209,
				1
			],
			"translation":[
				-1.3234889800848443e-23,
				2.311115933264683e-32,
				-2.6162977766251653e-32
			]
		},
		{
			"mesh":0,
			"name":"Object_7",
			"skin":0
		},
		{
			"children":[
				0,
				34,
				33
			],
			"name":"Object_4"
		},
		{
			"children":[
				35
			],
			"name":"rig",
			"rotation":[
				-0.70710688829422,
				0,
				0,
				0.7071066498756409
			],
			"scale":[
				100,
				99.99999237060547,
				99.99999237060547
			]
		},
		{
			"children":[
				36
			],
			"name":"RootNode"
		},
		{
			"children":[
				37
			],
			"name":"hero.fbx",
			"rotation":[
				0.70710688829422,
				0,
				0,
				0.7071066498756409
			],
			"scale":[
				0.009999999776482582,
				0.010000000707805157,
				0.010000000707805157
			]
		},
		{
			"children":[
				38
			],
			"name":"Sketchfab_model",
			"rotation":[
				-0.70710688829422,
				0,
				0,
				0.7071066498756409
			]
		}
	],
	"materials":[
		{
			"doubleSided":true,
			"extensions":{
				"KHR_materials_unlit":{}
			},
			"name":"hero.004",
			"pbrMetallicRoughness":{
				"baseColorTexture":{
					"index":0
				},
				"metallicFactor":0,
				"roughnessFactor":0.9
			}
		}
	],
	"meshes":[
		{
			"name":"male_player_hero_0.004",
			"primitives":[
				{
					"attributes":{
						"POSITION":0,
						"NORMAL":1,
						"TEXCOORD_0":2,
						"JOINTS_0":3,
						"WEIGHTS_0":4
					},
					"indices":5,
					"material":0
				}
			]
		}
	],
	"textures":[
		{
			"sampler":0,
			"source":0
		}
	],
	"images":[
		{
			"mimeType":"image/png",
			"name":"2",
			"uri":"2.png"
		}
	],
	"skins":[
		{
			"inverseBindMatrices":6,
			"joints":[
				33,
				32,
				23,
				22,
				3,
				2,
				1,
				12,
				11,
				10,
				9,
				6,
				5,
				4,
				8,
				7,
				21,
				20,
				19,
				18,
				15,
				14,
				13,
				17,
				16,
				27,
				26,
				25,
				24,
				31,
				30,
				29,
				28
			],
			"name":"Object_4"
		}
	],
	"accessors":[
		{
			"bufferView":0,
			"componentType":5126,
			"count":773,
			"max":[
				0.3713396191596985,
				1.8852994441986084,
				0.13443392515182495
			],
			"min":[
				-0.3713396191596985,
				0.0006595723680220544,
				-0.18576084077358246
			],
			"type":"VEC3"
		},
		{
			"bufferView":1,
			"componentType":5126,
			"count":773,
			"type":"VEC3"
		},
		{
			"bufferView":2,
			"componentType":5126,
			"count":773,
			"type":"VEC2"
		},
		{
			"bufferView":3,
			"componentType":5121,
			"count":773,
			"type":"VEC4"
		},
		{
			"bufferView":4,
			"componentType":5126,
			"count":773,
			"type":"VEC4"
		},
		{
			"bufferView":5,
			"componentType":5123,
			"count":2856,
			"type":"SCALAR"
		},
		{
			"bufferView":6,
			"componentType":5126,
			"count":33,
			"type":"MAT4"
		}
	],
	"bufferViews":[
		{
			"buffer":0,
			"byteLength":9276,
			"byteOffset":0,
			"target":34962
		},
		{
			"buffer":0,
			"byteLength":9276,
			"byteOffset":9276,
			"target":34962
		},
		{
			"buffer":0,
			"byteLength":6184,
			"byteOffset":18552,
			"target":34962
		},
		{
			"buffer":0,
			"byteLength":3092,
			"byteOffset":24736,
			"target":34962
		},
		{
			"buffer":0,
			"byteLength":12368,
			"byteOffset":27828,
			"target":34962
		},
		{
			"buffer":0,
			"byteLength":5712,
			"byteOffset":40196,
			"target":34963
		},
		{
			"buffer":0,
			"byteLength":2112,
			"byteOffset":45908
		}
	],
	"samplers":[
		{
			"magFilter":9728,
			"minFilter":9984
		}
	],
	"buffers":[
		{
			"byteLength":48020,
			"uri":"2.bin"
		}
	]
}
