{
	"asset":{
		"generator":"Khronos glTF Blender I/O v4.4.56",
		"version":"2.0"
	},
	"scene":0,
	"scenes":[
		{
			"name":"Scene",
			"nodes":[
				28
			]
		}
	],
	"nodes":[
		{
			"mesh":0,
			"name":"Furniture_Cabet_Table_0",
			"translation":[
				-0.9057181477546692,
				-1.3529044389724731,
				-0.29849669337272644
			]
		},
		{
			"mesh":1,
			"name":"Furniture_Chair_0",
			"translation":[
				-0.9057182669639587,
				-1.3529045581817627,
				-0.29849669337272644
			]
		},
		{
			"mesh":2,
			"name":"Furniture_LivingRoom.Alt_0",
			"translation":[
				-0.9057181477546692,
				-1.3529045581817627,
				-0.29849672317504883
			]
		},
		{
			"mesh":3,
			"name":"Furniture_LivingRoom_0",
			"translation":[
				-0.905718207359314,
				-1.3529044389724731,
				-0.29849672317504883
			]
		},
		{
			"mesh":4,
			"name":"Furniture_LivingRoomLamp_0",
			"translation":[
				-0.905718207359314,
				-1.3529044389724731,
				-0.29849696159362793
			]
		},
		{
			"children":[
				0,
				1,
				2,
				3,
				4
			],
			"name":"Furniture",
			"rotation":[
				-0.70710688829422,
				0,
				0,
				0.7071066498756409
			],
			"scale":[
				100.00000762939453,
				100,
				100
			],
			"translation":[
				-35.102813720703125,
				-68.4035873413086,
				88.82447814941406
			]
		},
		{
			"mesh":5,
			"name":"Items1_LivingRoom.Alt_0",
			"translation":[
				-0.9984254837036133,
				-1.7270065546035767,
				-0.5505831837654114
			]
		},
		{
			"mesh":6,
			"name":"Items1_LivingRoom_0",
			"translation":[
				-0.9984254837036133,
				-1.727006196975708,
				-0.5505831241607666
			]
		},
		{
			"mesh":7,
			"name":"Items1_Table Stuff_0",
			"translation":[
				-0.9984255433082581,
				-1.7270065546035767,
				-0.5505831241607666
			]
		},
		{
			"mesh":8,
			"name":"Items1_WallsRoofFloorExtras_0",
			"translation":[
				-0.9984256625175476,
				-1.7270065546035767,
				-0.5505830645561218
			]
		},
		{
			"children":[
				6,
				7,
				8,
				9
			],
			"name":"Items1",
			"rotation":[
				-0.70710688829422,
				0,
				0,
				0.7071066498756409
			],
			"scale":[
				100.00000762939453,
				100,
				100
			],
			"translation":[
				-25.832077026367188,
				-43.19495391845703,
				51.41429138183594
			]
		},
		{
			"name":"Object_24"
		},
		{
			"children":[
				11
			],
			"name":"Object_23",
			"rotation":[
				0.70710688829422,
				0,
				0,
				0.7071066498756409
			]
		},
		{
			"children":[
				12
			],
			"name":"Kitchen_UP",
			"rotation":[
				-1,
				0,
				0,
				7.549789415861596e-08
			],
			"scale":[
				100.00000762939453,
				100.00000762939453,
				100.00000762939453
			],
			"translation":[
				-48.54735565185547,
				-3.70489501953125,
				358.60748291015625
			]
		},
		{
			"name":"Object_18"
		},
		{
			"children":[
				14
			],
			"name":"Object_17",
			"rotation":[
				0.70710688829422,
				0,
				0,
				0.7071066498756409
			]
		},
		{
			"children":[
				15
			],
			"name":"KitchenLight",
			"scale":[
				100.00000762939453,
				100.00000762939453,
				100.00000762939453
			],
			"translation":[
				-48.54735565185547,
				116.88361358642578,
				358.60748291015625
			]
		},
		{
			"name":"Object_21"
		},
		{
			"children":[
				17
			],
			"name":"Object_20",
			"rotation":[
				0.70710688829422,
				0,
				0,
				0.7071066498756409
			]
		},
		{
			"children":[
				18
			],
			"name":"LivingRoomLight",
			"scale":[
				100.00000762939453,
				100.00000762939453,
				100.00000762939453
			],
			"translation":[
				-25.581008911132812,
				64.35900115966797,
				48.30101013183594
			]
		},
		{
			"mesh":9,
			"name":"Plane_OldLady_0",
			"translation":[
				2.121288299560547,
				0.45324796438217163,
				-0.1401413232088089
			]
		},
		{
			"children":[
				20
			],
			"name":"Plane",
			"rotation":[
				-0.70710688829422,
				0,
				0,
				0.7071066498756409
			],
			"scale":[
				100.00000762939453,
				100,
				100
			],
			"translation":[
				-337.8034362792969,
				-84.23907470703125,
				269.4397277832031
			]
		},
		{
			"mesh":10,
			"name":"Plane.001_OldLady_0",
			"translation":[
				1.9056063890457153,
				0.7501355409622192,
				-0.4094087481498718
			]
		},
		{
			"children":[
				22
			],
			"name":"Plane.001",
			"rotation":[
				-0.7019008994102478,
				0.019926773384213448,
				-0.02822992391884327,
				0.7114360332489014
			],
			"scale":[
				100,
				100.00003051757812,
				100.00000762939453
			],
			"translation":[
				-313.91168212890625,
				-45.406951904296875,
				297.535888671875
			]
		},
		{
			"mesh":11,
			"name":"Room_WallsRoofFloorExtras_0",
			"translation":[
				-1.2567461729049683,
				-2.2411491870880127,
				-0.9825328588485718
			]
		},
		{
			"children":[
				24
			],
			"name":"Room",
			"rotation":[
				-0.70710688829422,
				0,
				0,
				0.7071066498756409
			],
			"scale":[
				100.00000762939453,
				100,
				100
			],
			"translation":[
				-7.62939453125e-06,
				0,
				0
			]
		},
		{
			"children":[
				5,
				10,
				13,
				16,
				19,
				21,
				23,
				25
			],
			"name":"RootNode",
			"translation":[
				-7.62939453125e-06,
				0,
				0
			]
		},
		{
			"children":[
				26
			],
			"name":"604e66b3bf6f435ea57c08713c095be8.fbx",
			"rotation":[
				0.70710688829422,
				0,
				0,
				0.7071066498756409
			],
			"translation":[
				0,
				2.057600795524195e-06,
				-8.035147402551956e-06
			]
		},
		{
			"children":[
				27
			],
			"name":"Sketchfab_model",
			"rotation":[
				-0.70710688829422,
				0,
				0,
				0.7071066498756409
			],
			"scale":[
				0.01429396215826273,
				0.014293964020907879,
				0.014293964020907879
			],
			"translation":[
				1.7963883876800537,
				1.4044280052185059,
				-3.2034912109375
			]
		}
	],
	"materials":[
		{
			"doubleSided":true,
			"name":"Cabet_Table",
			"pbrMetallicRoughness":{
				"baseColorTexture":{
					"index":0
				},
				"metallicFactor":0,
				"roughnessFactor":0.8211145401000977
			}
		},
		{
			"alphaMode":"BLEND",
			"doubleSided":true,
			"name":"Chair",
			"pbrMetallicRoughness":{
				"baseColorTexture":{
					"index":1
				},
				"metallicFactor":0,
				"roughnessFactor":0.8211145401000977
			}
		},
		{
			"alphaMode":"BLEND",
			"name":"LivingRoom.Alt",
			"pbrMetallicRoughness":{
				"baseColorTexture":{
					"index":2
				},
				"metallicFactor":0
			}
		},
		{
			"alphaMode":"BLEND",
			"doubleSided":true,
			"name":"LivingRoom",
			"pbrMetallicRoughness":{
				"baseColorTexture":{
					"index":3
				},
				"metallicFactor":0,
				"roughnessFactor":0.7470178008079529
			}
		},
		{
			"doubleSided":true,
			"emissiveFactor":[
				1,
				1,
				1
			],
			"emissiveTexture":{
				"index":4
			},
			"name":"LivingRoomLamp",
			"pbrMetallicRoughness":{
				"baseColorTexture":{
					"index":5
				},
				"metallicFactor":0,
				"roughnessFactor":0.7470178008079529
			}
		},
		{
			"alphaMode":"BLEND",
			"doubleSided":true,
			"name":"Table_Stuff",
			"pbrMetallicRoughness":{
				"baseColorTexture":{
					"index":6
				},
				"metallicFactor":0,
				"roughnessFactor":0.8211145401000977
			}
		},
		{
			"alphaMode":"BLEND",
			"name":"WallsRoofFloorExtras",
			"pbrMetallicRoughness":{
				"baseColorTexture":{
					"index":7
				},
				"metallicFactor":0,
				"roughnessFactor":0.8040408492088318
			}
		},
		{
			"alphaMode":"BLEND",
			"doubleSided":true,
			"name":"OldLady",
			"pbrMetallicRoughness":{
				"baseColorTexture":{
					"index":8
				},
				"metallicFactor":0,
				"roughnessFactor":0.7470178008079529
			}
		}
	],
	"meshes":[
		{
			"name":"Furniture_Cabet_Table_0",
			"primitives":[
				{
					"attributes":{
						"POSITION":0,
						"NORMAL":1,
						"TEXCOORD_0":2
					},
					"indices":3,
					"material":0
				}
			]
		},
		{
			"name":"Furniture_Chair_0",
			"primitives":[
				{
					"attributes":{
						"POSITION":4,
						"NORMAL":5,
						"TEXCOORD_0":6
					},
					"indices":7,
					"material":1
				}
			]
		},
		{
			"name":"Furniture_LivingRoom.Alt_0",
			"primitives":[
				{
					"attributes":{
						"POSITION":8,
						"NORMAL":9,
						"TEXCOORD_0":10
					},
					"indices":11,
					"material":2
				}
			]
		},
		{
			"name":"Furniture_LivingRoom_0",
			"primitives":[
				{
					"attributes":{
						"POSITION":12,
						"NORMAL":13,
						"TEXCOORD_0":14
					},
					"indices":15,
					"material":3
				}
			]
		},
		{
			"name":"Furniture_LivingRoomLamp_0",
			"primitives":[
				{
					"attributes":{
						"POSITION":16,
						"NORMAL":17,
						"TEXCOORD_0":18
					},
					"indices":19,
					"material":4
				}
			]
		},
		{
			"name":"Items1_LivingRoom.Alt_0",
			"primitives":[
				{
					"attributes":{
						"POSITION":20,
						"NORMAL":21,
						"TEXCOORD_0":22
					},
					"indices":23,
					"material":2
				}
			]
		},
		{
			"name":"Items1_LivingRoom_0",
			"primitives":[
				{
					"attributes":{
						"POSITION":24,
						"NORMAL":25,
						"TEXCOORD_0":26
					},
					"indices":27,
					"material":3
				}
			]
		},
		{
			"name":"Items1_Table Stuff_0",
			"primitives":[
				{
					"attributes":{
						"POSITION":28,
						"NORMAL":29,
						"TEXCOORD_0":30
					},
					"indices":31,
					"material":5
				}
			]
		},
		{
			"name":"Items1_WallsRoofFloorExtras_0",
			"primitives":[
				{
					"attributes":{
						"POSITION":32,
						"NORMAL":33,
						"TEXCOORD_0":34
					},
					"indices":35,
					"material":6
				}
			]
		},
		{
			"name":"Plane_OldLady_0",
			"primitives":[
				{
					"attributes":{
						"POSITION":36,
						"NORMAL":37,
						"TEXCOORD_0":38
					},
					"indices":39,
					"material":7
				}
			]
		},
		{
			"name":"Plane.001_OldLady_0",
			"primitives":[
				{
					"attributes":{
						"POSITION":40,
						"NORMAL":41,
						"TEXCOORD_0":42
					},
					"indices":43,
					"material":7
				}
			]
		},
		{
			"name":"Room_WallsRoofFloorExtras_0",
			"primitives":[
				{
					"attributes":{
						"POSITION":44,
						"NORMAL":45,
						"TEXCOORD_0":46
					},
					"indices":47,
					"material":6
				}
			]
		}
	],
	"textures":[
		{
			"sampler":0,
			"source":0
		},
		{
			"sampler":0,
			"source":1
		},
		{
			"sampler":0,
			"source":2
		},
		{
			"sampler":0,
			"source":2
		},
		{
			"sampler":0,
			"source":3
		},
		{
			"sampler":0,
			"source":3
		},
		{
			"sampler":0,
			"source":4
		},
		{
			"sampler":0,
			"source":5
		},
		{
			"sampler":0,
			"source":6
		}
	],
	"images":[
		{
			"mimeType":"image/png",
			"name":"Image",
			"uri":"textures/Image.png"
		},
		{
			"mimeType":"image/png",
			"name":"Image",
			"uri":"textures/Image-1.png"
		},
		{
			"mimeType":"image/png",
			"name":"Image",
			"uri":"textures/Image-2.png"
		},
		{
			"mimeType":"image/png",
			"name":"Image",
			"uri":"textures/Image-3.png"
		},
		{
			"mimeType":"image/png",
			"name":"Image",
			"uri":"textures/Image-4.png"
		},
		{
			"mimeType":"image/png",
			"name":"Image",
			"uri":"textures/Image-5.png"
		},
		{
			"mimeType":"image/png",
			"name":"Image",
			"uri":"textures/Image-6.png"
		}
	],
	"accessors":[
		{
			"bufferView":0,
			"componentType":5126,
			"count":943,
			"max":[
				1.3669649362564087,
				2.357666254043579,
				0.550583004951477
			],
			"min":[
				0.6298860311508179,
				1.096346378326416,
				-0.017436593770980835
			],
			"type":"VEC3"
		},
		{
			"bufferView":1,
			"componentType":5126,
			"count":943,
			"type":"VEC3"
		},
		{
			"bufferView":2,
			"componentType":5126,
			"count":943,
			"type":"VEC2"
		},
		{
			"bufferView":3,
			"componentType":5123,
			"count":1440,
			"type":"SCALAR"
		},
		{
			"bufferView":4,
			"componentType":5126,
			"count":1590,
			"max":[
				1.5627686977386475,
				2.5496838092803955,
				0.6650670766830444
			],
			"min":[
				0.4023866653442383,
				0.815177321434021,
				-0.012952536344528198
			],
			"type":"VEC3"
		},
		{
			"bufferView":5,
			"componentType":5126,
			"count":1590,
			"type":"VEC3"
		},
		{
			"bufferView":6,
			"componentType":5126,
			"count":1590,
			"type":"VEC2"
		},
		{
			"bufferView":7,
			"componentType":5123,
			"count":2376,
			"type":"SCALAR"
		},
		{
			"bufferView":8,
			"componentType":5126,
			"count":1164,
			"max":[
				2.5265731811523438,
				3.1809277534484863,
				2.1611835956573486
			],
			"min":[
				-0.9972982406616211,
				-3.503833770751953,
				-0.09416943788528442
			],
			"type":"VEC3"
		},
		{
			"bufferView":9,
			"componentType":5126,
			"count":1164,
			"type":"VEC3"
		},
		{
			"bufferView":10,
			"componentType":5126,
			"count":1164,
			"type":"VEC2"
		},
		{
			"bufferView":11,
			"componentType":5123,
			"count":2052,
			"type":"SCALAR"
		},
		{
			"bufferView":12,
			"componentType":5126,
			"count":1148,
			"max":[
				2.4767699241638184,
				3.2419192790985107,
				1.9991073608398438
			],
			"min":[
				-0.9654457569122314,
				-3.503833770751953,
				-0.03779548406600952
			],
			"type":"VEC3"
		},
		{
			"bufferView":13,
			"componentType":5126,
			"count":1148,
			"type":"VEC3"
		},
		{
			"bufferView":14,
			"componentType":5126,
			"count":1148,
			"type":"VEC2"
		},
		{
			"bufferView":15,
			"componentType":5123,
			"count":1866,
			"type":"SCALAR"
		},
		{
			"bufferView":16,
			"componentType":5126,
			"count":84,
			"max":[
				1.1195392608642578,
				1.8757400512695312,
				2.178459644317627
			],
			"min":[
				0.8823333382606506,
				1.640538215637207,
				1.5402077436447144
			],
			"type":"VEC3"
		},
		{
			"bufferView":17,
			"componentType":5126,
			"count":84,
			"type":"VEC3"
		},
		{
			"bufferView":18,
			"componentType":5126,
			"count":84,
			"type":"VEC2"
		},
		{
			"bufferView":19,
			"componentType":5123,
			"count":126,
			"type":"SCALAR"
		},
		{
			"bufferView":20,
			"componentType":5126,
			"count":62,
			"max":[
				0.7487913966178894,
				1.8064773082733154,
				0.8563553690910339
			],
			"min":[
				-0.8669491410255432,
				-2.2915024757385254,
				0.7003929018974304
			],
			"type":"VEC3"
		},
		{
			"bufferView":21,
			"componentType":5126,
			"count":62,
			"type":"VEC3"
		},
		{
			"bufferView":22,
			"componentType":5126,
			"count":62,
			"type":"VEC2"
		},
		{
			"bufferView":23,
			"componentType":5123,
			"count":114,
			"type":"SCALAR"
		},
		{
			"bufferView":24,
			"componentType":5126,
			"count":296,
			"max":[
				0.33438098430633545,
				-0.9606684446334839,
				0.9322493076324463
			],
			"min":[
				-2.310711622238159,
				-3.4740376472473145,
				-0.008557647466659546
			],
			"type":"VEC3"
		},
		{
			"bufferView":25,
			"componentType":5126,
			"count":296,
			"type":"VEC3"
		},
		{
			"bufferView":26,
			"componentType":5126,
			"count":296,
			"type":"VEC2"
		},
		{
			"bufferView":27,
			"componentType":5123,
			"count":444,
			"type":"SCALAR"
		},
		{
			"bufferView":28,
			"componentType":5126,
			"count":1583,
			"max":[
				2.3892321586608887,
				2.09126615524292,
				0.8080049753189087
			],
			"min":[
				-0.8246923685073853,
				-3.358304023742676,
				0.5505831241607666
			],
			"type":"VEC3"
		},
		{
			"bufferView":29,
			"componentType":5126,
			"count":1583,
			"type":"VEC3"
		},
		{
			"bufferView":30,
			"componentType":5126,
			"count":1583,
			"type":"VEC2"
		},
		{
			"bufferView":31,
			"componentType":5123,
			"count":2376,
			"type":"SCALAR"
		},
		{
			"bufferView":32,
			"componentType":5126,
			"count":3032,
			"max":[
				2.4939098358154297,
				3.261343002319336,
				2.0729315280914307
			],
			"min":[
				-0.9746875762939453,
				-3.5266618728637695,
				-0.02216649055480957
			],
			"type":"VEC3"
		},
		{
			"bufferView":33,
			"componentType":5126,
			"count":3032,
			"type":"VEC3"
		},
		{
			"bufferView":34,
			"componentType":5126,
			"count":3032,
			"type":"VEC2"
		},
		{
			"bufferView":35,
			"componentType":5123,
			"count":5172,
			"type":"SCALAR"
		},
		{
			"bufferView":36,
			"componentType":5126,
			"count":1076,
			"max":[
				-1.8339165449142456,
				-0.15651458501815796,
				1.4345130920410156
			],
			"min":[
				-2.3791885375976562,
				-0.7499813437461853,
				-0.02034759521484375
			],
			"type":"VEC3"
		},
		{
			"bufferView":37,
			"componentType":5126,
			"count":1076,
			"type":"VEC3"
		},
		{
			"bufferView":38,
			"componentType":5126,
			"count":1076,
			"type":"VEC2"
		},
		{
			"bufferView":39,
			"componentType":5123,
			"count":1584,
			"type":"SCALAR"
		},
		{
			"bufferView":40,
			"componentType":5126,
			"count":8,
			"max":[
				-1.5948982238769531,
				-0.7111554145812988,
				0.6335265636444092
			],
			"min":[
				-2.2163138389587402,
				-0.7891155481338501,
				0.18529081344604492
			],
			"type":"VEC3"
		},
		{
			"bufferView":41,
			"componentType":5126,
			"count":8,
			"type":"VEC3"
		},
		{
			"bufferView":42,
			"componentType":5126,
			"count":8,
			"type":"VEC2"
		},
		{
			"bufferView":43,
			"componentType":5123,
			"count":12,
			"type":"SCALAR"
		},
		{
			"bufferView":44,
			"componentType":5126,
			"count":114,
			"max":[
				2.4664130210876465,
				3.2411489486694336,
				2.1557679176330566
			],
			"min":[
				-2.3934624195098877,
				-3.461751937866211,
				-0.017467141151428223
			],
			"type":"VEC3"
		},
		{
			"bufferView":45,
			"componentType":5126,
			"count":114,
			"type":"VEC3"
		},
		{
			"bufferView":46,
			"componentType":5126,
			"count":114,
			"type":"VEC2"
		},
		{
			"bufferView":47,
			"componentType":5123,
			"count":210,
			"type":"SCALAR"
		}
	],
	"bufferViews":[
		{
			"buffer":0,
			"byteLength":11316,
			"byteOffset":0,
			"target":34962
		},
		{
			"buffer":0,
			"byteLength":11316,
			"byteOffset":11316,
			"target":34962
		},
		{
			"buffer":0,
			"byteLength":7544,
			"byteOffset":22632,
			"target":34962
		},
		{
			"buffer":0,
			"byteLength":2880,
			"byteOffset":30176,
			"target":34963
		},
		{
			"buffer":0,
			"byteLength":19080,
			"byteOffset":33056,
			"target":34962
		},
		{
			"buffer":0,
			"byteLength":19080,
			"byteOffset":52136,
			"target":34962
		},
		{
			"buffer":0,
			"byteLength":12720,
			"byteOffset":71216,
			"target":34962
		},
		{
			"buffer":0,
			"byteLength":4752,
			"byteOffset":83936,
			"target":34963
		},
		{
			"buffer":0,
			"byteLength":13968,
			"byteOffset":88688,
			"target":34962
		},
		{
			"buffer":0,
			"byteLength":13968,
			"byteOffset":102656,
			"target":34962
		},
		{
			"buffer":0,
			"byteLength":9312,
			"byteOffset":116624,
			"target":34962
		},
		{
			"buffer":0,
			"byteLength":4104,
			"byteOffset":125936,
			"target":34963
		},
		{
			"buffer":0,
			"byteLength":13776,
			"byteOffset":130040,
			"target":34962
		},
		{
			"buffer":0,
			"byteLength":13776,
			"byteOffset":143816,
			"target":34962
		},
		{
			"buffer":0,
			"byteLength":9184,
			"byteOffset":157592,
			"target":34962
		},
		{
			"buffer":0,
			"byteLength":3732,
			"byteOffset":166776,
			"target":34963
		},
		{
			"buffer":0,
			"byteLength":1008,
			"byteOffset":170508,
			"target":34962
		},
		{
			"buffer":0,
			"byteLength":1008,
			"byteOffset":171516,
			"target":34962
		},
		{
			"buffer":0,
			"byteLength":672,
			"byteOffset":172524,
			"target":34962
		},
		{
			"buffer":0,
			"byteLength":252,
			"byteOffset":173196,
			"target":34963
		},
		{
			"buffer":0,
			"byteLength":744,
			"byteOffset":173448,
			"target":34962
		},
		{
			"buffer":0,
			"byteLength":744,
			"byteOffset":174192,
			"target":34962
		},
		{
			"buffer":0,
			"byteLength":496,
			"byteOffset":174936,
			"target":34962
		},
		{
			"buffer":0,
			"byteLength":228,
			"byteOffset":175432,
			"target":34963
		},
		{
			"buffer":0,
			"byteLength":3552,
			"byteOffset":175660,
			"target":34962
		},
		{
			"buffer":0,
			"byteLength":3552,
			"byteOffset":179212,
			"target":34962
		},
		{
			"buffer":0,
			"byteLength":2368,
			"byteOffset":182764,
			"target":34962
		},
		{
			"buffer":0,
			"byteLength":888,
			"byteOffset":185132,
			"target":34963
		},
		{
			"buffer":0,
			"byteLength":18996,
			"byteOffset":186020,
			"target":34962
		},
		{
			"buffer":0,
			"byteLength":18996,
			"byteOffset":205016,
			"target":34962
		},
		{
			"buffer":0,
			"byteLength":12664,
			"byteOffset":224012,
			"target":34962
		},
		{
			"buffer":0,
			"byteLength":4752,
			"byteOffset":236676,
			"target":34963
		},
		{
			"buffer":0,
			"byteLength":36384,
			"byteOffset":241428,
			"target":34962
		},
		{
			"buffer":0,
			"byteLength":36384,
			"byteOffset":277812,
			"target":34962
		},
		{
			"buffer":0,
			"byteLength":24256,
			"byteOffset":314196,
			"target":34962
		},
		{
			"buffer":0,
			"byteLength":10344,
			"byteOffset":338452,
			"target":34963
		},
		{
			"buffer":0,
			"byteLength":12912,
			"byteOffset":348796,
			"target":34962
		},
		{
			"buffer":0,
			"byteLength":12912,
			"byteOffset":361708,
			"target":34962
		},
		{
			"buffer":0,
			"byteLength":8608,
			"byteOffset":374620,
			"target":34962
		},
		{
			"buffer":0,
			"byteLength":3168,
			"byteOffset":383228,
			"target":34963
		},
		{
			"buffer":0,
			"byteLength":96,
			"byteOffset":386396,
			"target":34962
		},
		{
			"buffer":0,
			"byteLength":96,
			"byteOffset":386492,
			"target":34962
		},
		{
			"buffer":0,
			"byteLength":64,
			"byteOffset":386588,
			"target":34962
		},
		{
			"buffer":0,
			"byteLength":24,
			"byteOffset":386652,
			"target":34963
		},
		{
			"buffer":0,
			"byteLength":1368,
			"byteOffset":386676,
			"target":34962
		},
		{
			"buffer":0,
			"byteLength":1368,
			"byteOffset":388044,
			"target":34962
		},
		{
			"buffer":0,
			"byteLength":912,
			"byteOffset":389412,
			"target":34962
		},
		{
			"buffer":0,
			"byteLength":420,
			"byteOffset":390324,
			"target":34963
		}
	],
	"samplers":[
		{
			"magFilter":9728,
			"minFilter":9984
		}
	],
	"buffers":[
		{
			"byteLength":390744,
			"uri":"scene.bin"
		}
	]
}
