{
	"asset":{
		"generator":"Khronos glTF Blender I/O v4.4.56",
		"version":"2.0"
	},
	"scene":0,
	"scenes":[
		{
			"name":"Scene",
			"nodes":[
				0
			]
		}
	],
	"nodes":[
		{
			"mesh":0,
			"name":"Cube",
			"scale":[
				0.2813251316547394,
				0.2813251316547394,
				0.2813251316547394
			],
			"translation":[
				0,
				0.8526650071144104,
				0
			]
		}
	],
	"materials":[
		{
			"doubleSided":true,
			"name":"Material.001",
			"pbrMetallicRoughness":{
				"baseColorTexture":{
					"index":0
				},
				"metallicFactor":0,
				"roughnessFactor":0.5
			}
		},
		{
			"doubleSided":true,
			"name":"Material",
			"pbrMetallicRoughness":{
				"baseColorTexture":{
					"index":1
				},
				"metallicFactor":0,
				"roughnessFactor":0.5
			}
		},
		{
			"doubleSided":true,
			"name":"Material.002",
			"pbrMetallicRoughness":{
				"baseColorTexture":{
					"index":2
				},
				"metallicFactor":0,
				"roughnessFactor":0.5
			}
		}
	],
	"meshes":[
		{
			"name":"Cube.001",
			"primitives":[
				{
					"attributes":{
						"POSITION":0,
						"NORMAL":1,
						"TEXCOORD_0":2
					},
					"indices":3,
					"material":0
				},
				{
					"attributes":{
						"POSITION":4,
						"NORMAL":5,
						"TEXCOORD_0":6
					},
					"indices":7,
					"material":1
				},
				{
					"attributes":{
						"POSITION":8,
						"NORMAL":9,
						"TEXCOORD_0":10
					},
					"indices":11,
					"material":2
				}
			]
		}
	],
	"textures":[
		{
			"sampler":0,
			"source":0
		},
		{
			"sampler":0,
			"source":1
		},
		{
			"sampler":0,
			"source":1
		}
	],
	"images":[
		{
			"mimeType":"image/png",
			"name":"Bez nazwy-4.png",
			"uri":"Bez%20nazwy-4_png.png"
		},
		{
			"mimeType":"image/png",
			"name":"cat_tex",
			"uri":"cat_tex.png"
		}
	],
	"accessors":[
		{
			"bufferView":0,
			"componentType":5126,
			"count":594,
			"max":[
				2.294858694076538,
				2.5141913890838623,
				0.508394718170166
			],
			"min":[
				-2.294858694076538,
				-3.0308916568756104,
				-0.5300213098526001
			],
			"type":"VEC3"
		},
		{
			"bufferView":1,
			"componentType":5126,
			"count":594,
			"type":"VEC3"
		},
		{
			"bufferView":2,
			"componentType":5126,
			"count":594,
			"type":"VEC2"
		},
		{
			"bufferView":3,
			"componentType":5123,
			"count":1374,
			"type":"SCALAR"
		},
		{
			"bufferView":4,
			"componentType":5126,
			"count":70,
			"max":[
				0.08589018136262894,
				0.40759479999542236,
				-0.1049734354019165
			],
			"min":[
				-0.02426081895828247,
				-0.08204972743988037,
				-1.3167870044708252
			],
			"type":"VEC3"
		},
		{
			"bufferView":5,
			"componentType":5126,
			"count":70,
			"type":"VEC3"
		},
		{
			"bufferView":6,
			"componentType":5126,
			"count":70,
			"type":"VEC2"
		},
		{
			"bufferView":7,
			"componentType":5123,
			"count":108,
			"type":"SCALAR"
		},
		{
			"bufferView":8,
			"componentType":5126,
			"count":112,
			"max":[
				0.3073982894420624,
				2.818830966949463,
				0.7646902203559875
			],
			"min":[
				-0.3063518702983856,
				1.9811793565750122,
				-0.09965917468070984
			],
			"type":"VEC3"
		},
		{
			"bufferView":9,
			"componentType":5126,
			"count":112,
			"type":"VEC3"
		},
		{
			"bufferView":10,
			"componentType":5126,
			"count":112,
			"type":"VEC2"
		},
		{
			"bufferView":11,
			"componentType":5123,
			"count":384,
			"type":"SCALAR"
		}
	],
	"bufferViews":[
		{
			"buffer":0,
			"byteLength":7128,
			"byteOffset":0,
			"target":34962
		},
		{
			"buffer":0,
			"byteLength":7128,
			"byteOffset":7128,
			"target":34962
		},
		{
			"buffer":0,
			"byteLength":4752,
			"byteOffset":14256,
			"target":34962
		},
		{
			"buffer":0,
			"byteLength":2748,
			"byteOffset":19008,
			"target":34963
		},
		{
			"buffer":0,
			"byteLength":840,
			"byteOffset":21756,
			"target":34962
		},
		{
			"buffer":0,
			"byteLength":840,
			"byteOffset":22596,
			"target":34962
		},
		{
			"buffer":0,
			"byteLength":560,
			"byteOffset":23436,
			"target":34962
		},
		{
			"buffer":0,
			"byteLength":216,
			"byteOffset":23996,
			"target":34963
		},
		{
			"buffer":0,
			"byteLength":1344,
			"byteOffset":24212,
			"target":34962
		},
		{
			"buffer":0,
			"byteLength":1344,
			"byteOffset":25556,
			"target":34962
		},
		{
			"buffer":0,
			"byteLength":896,
			"byteOffset":26900,
			"target":34962
		},
		{
			"buffer":0,
			"byteLength":768,
			"byteOffset":27796,
			"target":34963
		}
	],
	"samplers":[
		{
			"magFilter":9729,
			"minFilter":9987
		}
	],
	"buffers":[
		{
			"byteLength":28564,
			"uri":"1.bin"
		}
	]
}
